<svg width="552pt" height="66pt" viewBox="0.00 0.00 552.00 66.00" xmlns="http://www.w3.org/2000/svg" xmlns:xlink="http://www.w3.org/1999/xlink">
<g id="graph1" class="graph" transform="scale(1 1) rotate(0) translate(4 62)">
<title>G</title>
<polygon fill="white" stroke="white" points="-4,5 -4,-62 549,-62 549,5 -4,5"></polygon>
<!-- Authentication -->
<g id="node1" class="node"><title>Authentication</title>
<ellipse fill="none" stroke="black" cx="69" cy="-29" rx="68.3575" ry="18"></ellipse>
<text text-anchor="middle" x="69" y="-24.8" font-family="Times,serif" font-size="14.00">Authentication</text>
</g>
<!-- Authorization -->
<g id="node3" class="node"><title>Authorization</title>
<ellipse fill="none" stroke="black" cx="239" cy="-29" rx="64.8467" ry="18"></ellipse>
<text text-anchor="middle" x="239" y="-24.8" font-family="Times,serif" font-size="14.00">Authorization</text>
</g>
<!-- Authentication&#45;&gt;Authorization -->
<g id="edge2" class="edge"><title>Authentication-&gt;Authorization</title>
<path fill="none" stroke="black" d="M137.848,-29C146.488,-29 155.365,-29 164.094,-29"></path>
<polygon fill="black" stroke="black" points="164.251,-32.5001 174.251,-29 164.251,-25.5001 164.251,-32.5001"></polygon>
</g>
<!-- Request handler\n(REST, GraphQL, etc) -->
<g id="node5" class="node"><title>Request handler\n(REST, GraphQL, etc)</title>
<ellipse fill="none" stroke="black" cx="442" cy="-29" rx="101.449" ry="29.3315"></ellipse>
<text text-anchor="middle" x="442" y="-33.2" font-family="Times,serif" font-size="14.00">Request handler</text>
<text text-anchor="middle" x="442" y="-16.4" font-family="Times,serif" font-size="14.00">(REST, GraphQL, etc)</text>
</g>
<!-- Authorization&#45;&gt;Request handler\n(REST, GraphQL, etc) -->
<g id="edge4" class="edge"><title>Authorization-&gt;Request handler\n(REST, GraphQL, etc)</title>
<path fill="none" stroke="black" d="M303.874,-29C312.309,-29 321.144,-29 330.089,-29"></path>
<polygon fill="black" stroke="black" points="330.221,-32.5001 340.221,-29 330.221,-25.5001 330.221,-32.5001"></polygon>
</g>
</g>
</svg>
